<svg version="1.1" role="img" aria-labelledby="chrome-svg-title" id="chrome-logo-svg" xmlns="http://www.w3.org/2000/svg" xmlns:xlink="http://www.w3.org/1999/xlink" x="0px" y="0px"
	 viewBox="0 0 648.4 170.8" style="enable-background:new 0 0 648.4 170.8;" xml:space="preserve">
<title id="chrome-svg-title">Chrome</title>
<style type="text/css">
	.st0{fill:#FAFCFF;}
	.st1{fill:#FFFFFF;}
	.st2{fill-opacity:0.1;}
	.st3{fill:url(#circle53_2_);}
	.st4{fill:url(#path55_2_);}
	.st5{fill:url(#path57_2_);}
	.st6{fill:url(#path59_2_);}
	.st7{fill:url(#path61_2_);}
	.st8{fill:url(#path63_2_);}
	.st9{fill:url(#path65_2_);}
</style>
<g>
	<g>
		<path class="st0" d="M247.2,120c-3.3,1.6-10.7,4-20,4c-21,0-34.7-14.3-34.7-35.6c0-21.5,14.7-37.2,37.4-37.2
			c7.5,0,14.1,1.9,17.6,3.7l-2.9,9.6c-3-1.6-7.8-3.3-14.7-3.3c-16,0-24.6,12-24.6,26.4c0,16.1,10.4,26.1,24.2,26.1
			c7.2,0,12-1.7,15.6-3.3L247.2,120z"/>
		<path class="st0" d="M262,20.2h12.7v43.6h0.3c2-3.6,5.2-6.9,9.1-9.1c3.7-2.2,8.2-3.5,13-3.5c9.4,0,24.3,5.8,24.3,29.7v41.5h-12.7
			v-40c0-11.2-4.2-20.6-16.1-20.6c-8.2,0-14.5,5.8-17,12.5c-0.7,1.9-0.9,3.7-0.9,6v42H262L262,20.2L262,20.2z"/>
		<path class="st0" d="M341.9,74.5c0-8.2-0.1-15.3-0.6-21.7h11.1l0.6,13.8h0.4c3.2-9.4,10.9-15.3,19.4-15.3c1.3,0,2.3,0.1,3.5,0.3
			v12c-1.3-0.3-2.6-0.3-4.3-0.3c-8.9,0-15.3,6.6-17,16.1c-0.3,1.7-0.4,3.9-0.4,5.9v37.2h-12.7V74.5z"/>
		<path class="st0" d="M450.7,87c0,25.8-18,37-34.7,37c-18.7,0-33.4-13.8-33.4-35.9c0-23.2,15.4-36.9,34.6-36.9
			C437.1,51.3,450.7,65.9,450.7,87z M395.5,87.7c0,15.3,8.6,26.8,21,26.8c12.1,0,21.2-11.4,21.2-27.1c0-11.8-5.9-26.6-20.9-26.6
			C402,60.8,395.5,74.6,395.5,87.7z"/>
		<path class="st0" d="M466.6,71.6c0-7.3-0.3-13.1-0.6-18.9h11.1l0.6,11.4h0.4c3.9-6.6,10.4-12.8,22-12.8c9.4,0,16.6,5.8,19.6,14
			h0.3c2.2-4,5-6.9,7.9-9.1c4.2-3.2,8.6-4.9,15.3-4.9c9.4,0,23,6,23,30.2v40.9h-12.4V83.1c0-13.5-5-21.5-15.1-21.5
			c-7.3,0-12.8,5.3-15.1,11.4c-0.6,1.9-1,4-1,6.3v43.1h-12.4V80.7c0-11.1-4.9-19-14.5-19c-7.8,0-13.7,6.3-15.7,12.7
			c-0.7,1.7-1,4-1,6.2v41.9h-12.4V71.6z"/>
		<path class="st0" d="M593.8,89.9c0.3,17.1,11.1,24.2,23.9,24.2c9.1,0,14.7-1.6,19.3-3.6l2.3,9.1c-4.5,2-12.2,4.5-23.3,4.5
			c-21.5,0-34.3-14.3-34.3-35.3c0-21,12.4-37.4,32.7-37.4c22.9,0,28.8,19.9,28.8,32.7c0,2.6-0.1,4.5-0.4,5.9L593.8,89.9L593.8,89.9z
			 M630.9,80.8c0.1-7.9-3.3-20.4-17.6-20.4c-13,0-18.4,11.7-19.4,20.4H630.9z"/>
	</g>
</g>
<circle id="circle47_1_" class="st1" cx="85.3" cy="85.7" r="83.8"/>
<path id="path49_1_" class="st2" d="M138.6,100.9c0-29.5-23.9-53.3-53.3-53.3C55.9,47.6,32,71.5,32,100.9h15.2
	c0-21,17.1-38.1,38.1-38.1s38.1,17.1,38.1,38.1"/>
<circle id="circle51_1_" class="st2" cx="89.1" cy="96.4" r="29"/>
<linearGradient id="circle53_2_" gradientUnits="userSpaceOnUse" x1="-157.8861" y1="-96.4174" x2="-157.8861" y2="-95.6555" gradientTransform="matrix(82 0 0 82 13031.9707 7960.6992)">
	<stop  offset="0" style="stop-color:#81B4E0"/>
	<stop  offset="1" style="stop-color:#0C5A94"/>
</linearGradient>
<circle id="circle53_1_" class="st3" cx="85.3" cy="85.7" r="31.2"/>
<linearGradient id="path55_2_" gradientUnits="userSpaceOnUse" x1="-114.5195" y1="541.6082" x2="-114.5195" y2="610.9379" gradientTransform="matrix(1 0 0 1 202.5 -541.2241)">
	<stop  offset="0" style="stop-color:#F06B59"/>
	<stop  offset="1" style="stop-color:#DF2227"/>
</linearGradient>
<path id="path55_1_" class="st4" d="M161.5,47.6C140.5,5.4,89.3-11.8,47.1,9.2C34,15.7,22.7,25.6,14.5,37.7l34.3,59.4
	c-6.3-20.1,4.8-41.5,24.9-47.8c3.5-1.1,7.2-1.7,10.9-1.8"/>
<linearGradient id="path57_2_" gradientUnits="userSpaceOnUse" x1="-181.7386" y1="687.5891" x2="-146.6936" y2="629.6887" gradientTransform="matrix(1 0 0 1 202.5 -541.2241)">
	<stop  offset="0" style="stop-color:#388B41"/>
	<stop  offset="1" style="stop-color:#4CB749"/>
</linearGradient>
<path id="path57_1_" class="st5" d="M14.5,37.7c-26.2,39.1-15.8,92.1,23.4,118.4c12.1,8.1,26.1,13,40.6,14.2l35.8-60.9
	c-13.4,16.2-37.4,18.5-53.6,5.1c-5.5-4.5-9.6-10.6-11.9-17.3"/>
<linearGradient id="path59_2_" gradientUnits="userSpaceOnUse" x1="-64.3377" y1="693.7479" x2="-101.6686" y2="603.8491" gradientTransform="matrix(1 0 0 1 202.5 -541.2241)">
	<stop  offset="0" style="stop-color:#E4B022"/>
	<stop  offset="0.3" style="stop-color:#FCD209"/>
</linearGradient>
<path id="path59_1_" class="st6" d="M78.5,170.3c47,3.6,88-31.7,91.5-78.7c1.1-15.2-1.8-30.4-8.5-44H84.6c21,0.1,38,17.2,37.9,38.3
	c0,8.5-2.9,16.8-8.2,23.4"/>
<linearGradient id="path61_2_" gradientUnits="userSpaceOnUse" x1="-170.1355" y1="636.0798" x2="-170.1355" y2="575.1317" gradientTransform="matrix(1 0 0 1 202.5 -541.2241)">
	<stop  offset="0" style="stop-color:#000000;stop-opacity:0.15"/>
	<stop  offset="0.3" style="stop-color:#000000;stop-opacity:6.000000e-02"/>
	<stop  offset="1" style="stop-color:#000000;stop-opacity:3.000000e-02"/>
</linearGradient>
<path id="path61_1_" class="st7" d="M14.5,37.7l34.3,59.4c-2.5-8.5-2-17.7,1.5-25.9L16,35.4"/>
<linearGradient id="path63_2_" gradientUnits="userSpaceOnUse" x1="-86.009" y1="655.7618" x2="-127.9107" y2="698.4254" gradientTransform="matrix(1 0 0 1 202.5 -541.2241)">
	<stop  offset="0" style="stop-color:#000000;stop-opacity:0.15"/>
	<stop  offset="0.3" style="stop-color:#000000;stop-opacity:6.000000e-02"/>
	<stop  offset="1" style="stop-color:#000000;stop-opacity:3.000000e-02"/>
</linearGradient>
<path id="path63_1_" class="st8" d="M78.5,170.3l35.8-60.9c-5.7,6.7-13.5,11.3-22.1,13l-15.2,48"/>
<linearGradient id="path65_2_" gradientUnits="userSpaceOnUse" x1="-86.6163" y1="668.0358" x2="-80.5217" y2="607.8517" gradientTransform="matrix(1 0 0 1 202.5 -541.2241)">
	<stop  offset="0" style="stop-color:#000000;stop-opacity:0.15"/>
	<stop  offset="0.3" style="stop-color:#000000;stop-opacity:6.000000e-02"/>
	<stop  offset="1" style="stop-color:#000000;stop-opacity:3.000000e-02"/>
</linearGradient>
<path id="path65_1_" class="st9" d="M161.5,47.6H84.6c11.6,0.1,22.5,5.4,29.7,14.5L163,49.9"/>
</svg>
